D:\school\WTK\thesis\model\3dpredictsim\Results\batch_windlass\Pog_s1_tmt_bCst_d05_k1000_WL20_ig24_pas_GRF.mot
nRows=15
nColumns=19

name D:\school\WTK\thesis\model\3dpredictsim\Results\batch_windlass\Pog_s1_tmt_bCst_d05_k1000_WL20_ig24_pas_GRF.mot
datacolumns 19
datarows 15
range 0.0000000000 0.1499452080
endheader
time 	ground_force_vx	ground_force_vy	ground_force_vz	ground_force_px	ground_force_py	ground_force_pz	1_ground_force_vx	1_ground_force_vy	1_ground_force_vz	1_ground_force_px	1_ground_force_py	1_ground_force_pz	ground_torque_x	ground_torque_y	ground_torque_z	1_ground_torque_x	1_ground_torque_y	1_ground_torque_z
        0.0000000000	      -58.6992080812	       39.7135222706	       14.5801129794	        0.1398487748	        0.0000000000	        0.0444676143	      107.3451373067	      529.5294525653	       -0.8717781257	       -0.3171735897	        0.0000000000	       -0.0367790048	        0.0000000000	        0.0000000000	        0.0000000000	        0.0000000000	        0.0000000000	        0.0000000000	
        0.0107103720	      -95.3837586720	       77.5516600802	       30.6787416023	        0.1531341184	        0.0000000000	        0.0416631796	       90.1779674417	      448.8622309232	       -3.6853769713	       -0.3136440938	        0.0000000000	       -0.0356467340	        0.0000000000	        0.0000000000	        0.0000000000	        0.0000000000	        0.0000000000	        0.0000000000	
        0.0214207440	     -141.8344050238	      157.1323541767	       70.7630589469	        0.1634980302	        0.0000000000	        0.0405746018	       68.0696351497	      365.2448648228	      -10.0200701482	       -0.3087133018	        0.0000000000	       -0.0338333614	        0.0000000000	        0.0000000000	        0.0000000000	        0.0000000000	        0.0000000000	        0.0000000000	
        0.0321311160	      -65.0322874275	      348.2556864762	       29.4155485207	        0.1772881026	        0.0000000000	        0.0413589170	       39.8216281578	      267.2276995009	      -12.5009680510	       -0.3003401159	        0.0000000000	       -0.0300811287	        0.0000000000	        0.0000000000	        0.0000000000	        0.0000000000	        0.0000000000	        0.0000000000	
        0.0428414880	      -63.3942175866	      572.7230424857	       -2.0783908792	        0.1850762587	        0.0000000000	        0.0427257827	       17.1222819149	      179.0704041802	      -11.2942503376	       -0.2869272882	        0.0000000000	       -0.0230286324	        0.0000000000	        0.0000000000	        0.0000000000	        0.0000000000	        0.0000000000	        0.0000000000	
        0.0535518600	      -87.2883192132	      752.3895076778	      -11.4197138912	        0.1921617383	        0.0000000000	        0.0433282824	        2.8317879820	      144.3368942184	      -11.6238063295	       -0.2832854514	        0.0000000000	       -0.0207191124	        0.0000000000	        0.0000000000	        0.0000000000	        0.0000000000	        0.0000000000	        0.0000000000	
        0.0642622320	     -114.9827960884	      864.1169151866	      -13.2079682430	        0.2003851486	        0.0000000000	        0.0432398524	       -1.4340403209	      109.3038017390	      -11.6634719123	       -0.2829795485	        0.0000000000	       -0.0207902701	        0.0000000000	        0.0000000000	        0.0000000000	        0.0000000000	        0.0000000000	        0.0000000000	
        0.0749726040	     -120.4778734482	      903.6459848119	      -13.0833007756	        0.2082226277	        0.0000000000	        0.0426323357	       -9.6950529936	       68.0212193729	      -10.4860236786	       -0.2831336477	        0.0000000000	       -0.0208852457	        0.0000000000	        0.0000000000	        0.0000000000	        0.0000000000	        0.0000000000	        0.0000000000	
        0.0856829760	     -112.5483197024	      878.8677636674	      -11.4769398655	        0.2127637187	        0.0000000000	        0.0421325646	       -9.5904386700	       22.6655183779	       -4.3900684885	       -0.2834150956	        0.0000000000	       -0.0206657966	        0.0000000000	        0.0000000000	        0.0000000000	        0.0000000000	        0.0000000000	        0.0000000000	
        0.0963933480	      -97.4490345638	      833.4658412583	      -11.8819841911	        0.2159289972	        0.0000000000	        0.0417447717	        0.1300500419	       -0.1279973836	        0.0044796460	        0.0000000000	        0.0000000000	        0.0000000000	        0.0000000000	        0.0000000000	        0.0000000000	        0.0000000000	        0.0000000000	        0.0000000000	
        0.1071037200	      -83.0478186208	      786.0614783437	      -13.1901445980	        0.2188457169	        0.0000000000	        0.0414673808	        0.0004336015	       -0.0003518618	       -0.0000159005	        0.0000000000	        0.0000000000	        0.0000000000	        0.0000000000	        0.0000000000	        0.0000000000	        0.0000000000	        0.0000000000	        0.0000000000	
        0.1178140920	      -70.0275681004	      743.2168710904	      -13.9627268321	        0.2217173092	        0.0000000000	        0.0413091681	        0.0001354651	       -0.0000952049	       -0.0000078023	        0.0000000000	        0.0000000000	        0.0000000000	        0.0000000000	        0.0000000000	        0.0000000000	        0.0000000000	        0.0000000000	        0.0000000000	
        0.1285244640	      -58.4294120137	      705.8226891735	      -15.0190970764	        0.2247448073	        0.0000000000	        0.0412384960	        0.0006534606	       -0.0004118619	       -0.0000444042	        0.0000000000	        0.0000000000	        0.0000000000	        0.0000000000	        0.0000000000	        0.0000000000	        0.0000000000	        0.0000000000	        0.0000000000	
        0.1392348360	      -48.4040781075	      673.9293791921	      -15.8203530067	        0.2281017066	        0.0000000000	        0.0412373074	        0.0083588339	       -0.0048405232	       -0.0006238090	        0.0000000000	        0.0000000000	        0.0000000000	        0.0000000000	        0.0000000000	        0.0000000000	        0.0000000000	        0.0000000000	        0.0000000000	
        0.1499452080	      -39.5340884979	      648.2840461420	      -17.1453547259	        0.2323819081	        0.0000000000	        0.0412640303	       -0.0364042221	        0.0196953450	        0.0028947663	        0.0000000000	        0.0000000000	        0.0000000000	        0.0000000000	        0.0000000000	        0.0000000000	        0.0000000000	        0.0000000000	        0.0000000000	
